<?xml version="1.0" standalone="no"?>
<!DOCTYPE svg PUBLIC "-//W3C//DTD SVG 20010904//EN"
 "http://www.w3.org/TR/2001/REC-SVG-20010904/DTD/svg10.dtd">
<svg version="1.0" xmlns="http://www.w3.org/2000/svg"
 width="539.000000pt" height="539.000000pt" viewBox="0 0 539.000000 539.000000"
 preserveAspectRatio="xMidYMid meet">
<metadata>
Created by potrace 1.14, written by Peter Selinger 2001-2017
</metadata>
<g transform="translate(0.000000,539.000000) scale(0.100000,-0.100000)"
fill="#000000" stroke="none">
<path d="M1659 5386 c-2 -2 -66 -7 -142 -10 -75 -4 -143 -8 -150 -11 -6 -2
-39 -6 -72 -10 -120 -11 -254 -41 -363 -80 -201 -72 -424 -236 -591 -431 -37
-44 -141 -198 -141 -210 0 -4 -6 -15 -13 -23 -39 -47 -119 -274 -133 -379 -3
-26 -8 -50 -10 -53 -2 -3 -6 -33 -9 -65 -4 -32 -8 -70 -10 -83 -15 -90 -20
-414 -20 -1331 0 -923 4 -1205 20 -1315 2 -16 7 -55 10 -85 4 -30 8 -62 10
-70 1 -8 6 -33 9 -55 64 -396 366 -788 756 -982 139 -69 136 -68 230 -92 80
-22 98 -25 235 -45 183 -27 353 -31 1400 -31 907 0 1208 4 1330 20 17 2 57 7
90 11 33 3 69 8 80 10 11 2 34 7 50 10 46 8 165 41 212 58 202 72 441 249 590
433 21 27 40 50 43 53 4 3 27 37 53 76 104 158 173 340 202 534 38 247 40 343
39 1495 0 979 -4 1196 -19 1305 -3 19 -7 58 -10 85 -26 230 -97 425 -220 610
-144 215 -342 388 -570 501 -101 49 -229 93 -315 108 -19 3 -46 8 -60 10 -41
7 -111 16 -176 22 -33 3 -80 8 -105 11 -48 5 -2224 14 -2230 9z"/>
</g>
</svg>
